PathFileType	4	(X/Y/Z)	C:\Users\italobelli\Desktop\GitHub\PTbot_officialCBL\Personal_Results\FLX03_noisy2.trc
DataRate	CameraRate	NumFrames	NumMarkers	Units	OrigDataRate	OrigDataStartFrame	OrigNumFrames
106.125000	106.125000	46	9	m	106.125000	638	850
Frame#	Time		gu		centelbow		EpL		centpxt8		centijc7		ij		ts		aa		ai
			X1	Y1	Z1	X2	Y2	Z2	X3	Y3	Z3	X4	Y4	Z4	X5	Y5	Z5	X6	Y6	Z6	X7	Y7	Z7	X8	Y8	Z8	X9	Y9	Z9

638	6.0024	-0.082338	0.0028065	0.15608	0.028094	-0.19787	0.24391	0.043767	-0.17674	0.26252	-0.046816	-0.15316	-0.008669	-0.046816	0.031938	-0.008669	0	0	0	-0.14722	0.017361	0.04741	-0.11435	0.029348	0.16144	-0.14628	-0.094878	0.064419
639	6.0118	-0.082298	0.0024194	0.15621	0.025797	-0.19931	0.24335	0.041679	-0.1785	0.262	-0.046816	-0.15316	-0.008669	-0.046816	0.031938	-0.008669	0	0	0	-0.14712	0.017549	0.047429	-0.1143	0.0291	0.16159	-0.14638	-0.094768	0.064171
640	6.0212	-0.082255	0.0020304	0.15635	0.023429	-0.20076	0.24276	0.039522	-0.18025	0.26147	-0.046816	-0.15316	-0.008669	-0.046816	0.031938	-0.008669	0	0	0	-0.14701	0.017737	0.047457	-0.11423	0.028852	0.16173	-0.14648	-0.094654	0.063927
641	6.0306	-0.082211	0.0016398	0.15647	0.020994	-0.20219	0.24216	0.037298	-0.182	0.26092	-0.046816	-0.15316	-0.008669	-0.046816	0.031938	-0.008669	0	0	0	-0.14689	0.017926	0.047494	-0.11416	0.028606	0.16187	-0.14658	-0.094534	0.063688
642	6.04	-0.082164	0.0012481	0.1566	0.018494	-0.20363	0.24153	0.035011	-0.18375	0.26034	-0.046816	-0.15316	-0.008669	-0.046816	0.031938	-0.008669	0	0	0	-0.14677	0.018114	0.047538	-0.11407	0.02836	0.16202	-0.14668	-0.094411	0.063453
643	6.0495	-0.082116	0.00085541	0.15671	0.015934	-0.20506	0.24089	0.032666	-0.1855	0.25975	-0.046816	-0.15316	-0.008669	-0.046816	0.031938	-0.008669	0	0	0	-0.14664	0.018303	0.04759	-0.11398	0.028115	0.16216	-0.14677	-0.094283	0.063223
644	6.0589	-0.082065	0.00046216	0.15683	0.013318	-0.20648	0.24022	0.030264	-0.18724	0.25913	-0.046816	-0.15316	-0.008669	-0.046816	0.031938	-0.008669	0	0	0	-0.14651	0.018492	0.04765	-0.11387	0.027872	0.16231	-0.14687	-0.094152	0.062998
645	6.0683	-0.082013	6.8639e-05	0.15694	0.010648	-0.2079	0.23954	0.02781	-0.18897	0.2585	-0.046816	-0.15316	-0.008669	-0.046816	0.031938	-0.008669	0	0	0	-0.14638	0.01868	0.047717	-0.11376	0.02763	0.16246	-0.14697	-0.094017	0.062777
646	6.0777	-0.08196	-0.00032483	0.15704	0.0079286	-0.20931	0.23885	0.025306	-0.1907	0.25785	-0.046816	-0.15316	-0.008669	-0.046816	0.031938	-0.008669	0	0	0	-0.14624	0.018868	0.04779	-0.11364	0.027389	0.16261	-0.14706	-0.093878	0.062561
647	6.0872	-0.081904	-0.00071793	0.15715	0.0051635	-0.21071	0.23814	0.022757	-0.19242	0.25719	-0.046816	-0.15316	-0.008669	-0.046816	0.031938	-0.008669	0	0	0	-0.14609	0.019055	0.047869	-0.11351	0.027151	0.16275	-0.14716	-0.093737	0.062349
648	6.0966	-0.081848	-0.0011103	0.15724	0.0023563	-0.2121	0.23741	0.020166	-0.19412	0.25651	-0.046816	-0.15316	-0.008669	-0.046816	0.031938	-0.008669	0	0	0	-0.14594	0.019242	0.047955	-0.11337	0.026914	0.1629	-0.14725	-0.093593	0.062142
649	6.106	-0.081789	-0.0015018	0.15734	-0.00048934	-0.21348	0.23667	0.017535	-0.19582	0.25581	-0.046816	-0.15316	-0.008669	-0.046816	0.031938	-0.008669	0	0	0	-0.14579	0.019428	0.048046	-0.11323	0.026679	0.16305	-0.14735	-0.093446	0.061939
650	6.1154	-0.08173	-0.0018918	0.15743	-0.0033698	-0.21485	0.23591	0.01487	-0.1975	0.2551	-0.046816	-0.15316	-0.008669	-0.046816	0.031938	-0.008669	0	0	0	-0.14563	0.019612	0.048142	-0.11308	0.026447	0.1632	-0.14744	-0.093297	0.06174
651	6.1249	-0.081669	-0.0022803	0.15752	-0.0062814	-0.2162	0.23515	0.012172	-0.19918	0.25438	-0.046816	-0.15316	-0.008669	-0.046816	0.031938	-0.008669	0	0	0	-0.14547	0.019796	0.048243	-0.11292	0.026217	0.16335	-0.14753	-0.093146	0.061545
652	6.1343	-0.081607	-0.0026668	0.15761	-0.0092205	-0.21755	0.23437	0.0094449	-0.20083	0.25364	-0.046816	-0.15316	-0.008669	-0.046816	0.031938	-0.008669	0	0	0	-0.14531	0.019979	0.048349	-0.11276	0.02599	0.1635	-0.14763	-0.092993	0.061355
653	6.1437	-0.081543	-0.003051	0.15769	-0.012183	-0.21888	0.23357	0.0066929	-0.20248	0.2529	-0.046816	-0.15316	-0.008669	-0.046816	0.031938	-0.008669	0	0	0	-0.14514	0.02016	0.048459	-0.1126	0.025766	0.16365	-0.14772	-0.092839	0.06117
654	6.1531	-0.081479	-0.0034326	0.15777	-0.015166	-0.22019	0.23277	0.0039189	-0.2041	0.25214	-0.046816	-0.15316	-0.008669	-0.046816	0.031938	-0.008669	0	0	0	-0.14497	0.020339	0.048572	-0.11243	0.025544	0.16379	-0.14781	-0.092683	0.060988
655	6.1625	-0.081414	-0.0038113	0.15785	-0.018166	-0.22149	0.23196	0.0011264	-0.20571	0.25137	-0.046816	-0.15316	-0.008669	-0.046816	0.031938	-0.008669	0	0	0	-0.1448	0.020517	0.048689	-0.11225	0.025326	0.16394	-0.14789	-0.092526	0.06081
656	6.172	-0.081348	-0.0041868	0.15792	-0.021178	-0.22277	0.23114	-0.0016812	-0.2073	0.25059	-0.046816	-0.15316	-0.008669	-0.046816	0.031938	-0.008669	0	0	0	-0.14462	0.020693	0.048809	-0.11207	0.025111	0.16409	-0.14798	-0.092369	0.060637
657	6.1814	-0.081281	-0.0045587	0.158	-0.0242	-0.22404	0.23031	-0.0045005	-0.20887	0.24981	-0.046816	-0.15316	-0.008669	-0.046816	0.031938	-0.008669	0	0	0	-0.14445	0.020867	0.048932	-0.11189	0.024899	0.16423	-0.14806	-0.092211	0.060468
658	6.1908	-0.081213	-0.0049267	0.15807	-0.027227	-0.22528	0.22948	-0.0073281	-0.21042	0.24902	-0.046816	-0.15316	-0.008669	-0.046816	0.031938	-0.008669	0	0	0	-0.14427	0.021039	0.049057	-0.11171	0.024691	0.16437	-0.14815	-0.092052	0.060303
659	6.2002	-0.081145	-0.0052906	0.15814	-0.030256	-0.22651	0.22863	-0.010161	-0.21195	0.24822	-0.046816	-0.15316	-0.008669	-0.046816	0.031938	-0.008669	0	0	0	-0.14409	0.021209	0.049184	-0.11152	0.024487	0.16451	-0.14823	-0.091894	0.060141
660	6.2097	-0.081076	-0.00565	0.15821	-0.033283	-0.22772	0.22779	-0.012995	-0.21346	0.24741	-0.046816	-0.15316	-0.008669	-0.046816	0.031938	-0.008669	0	0	0	-0.1439	0.021376	0.049313	-0.11133	0.024287	0.16465	-0.14831	-0.091736	0.059984
661	6.2191	-0.081007	-0.0060045	0.15828	-0.036305	-0.2289	0.22693	-0.015827	-0.21494	0.2466	-0.046816	-0.15316	-0.008669	-0.046816	0.031938	-0.008669	0	0	0	-0.14372	0.021541	0.049443	-0.11115	0.024091	0.16479	-0.14839	-0.091578	0.059831
662	6.2285	-0.080937	-0.0063539	0.15834	-0.039317	-0.23006	0.22607	-0.018654	-0.2164	0.24578	-0.046816	-0.15316	-0.008669	-0.046816	0.031938	-0.008669	0	0	0	-0.14353	0.021703	0.049573	-0.11096	0.023899	0.16493	-0.14846	-0.091421	0.059681
663	6.2379	-0.080867	-0.0066979	0.15841	-0.042317	-0.2312	0.22521	-0.021472	-0.21783	0.24496	-0.046816	-0.15316	-0.008669	-0.046816	0.031938	-0.008669	0	0	0	-0.14335	0.021862	0.049705	-0.11077	0.023711	0.16506	-0.14854	-0.091265	0.059536
664	6.2473	-0.080796	-0.007036	0.15847	-0.0453	-0.23232	0.22434	-0.024278	-0.21924	0.24414	-0.046816	-0.15316	-0.008669	-0.046816	0.031938	-0.008669	0	0	0	-0.14316	0.022018	0.049836	-0.11058	0.023528	0.16519	-0.14861	-0.09111	0.059394
665	6.2568	-0.080726	-0.0073681	0.15854	-0.048264	-0.23341	0.22348	-0.027069	-0.22062	0.24332	-0.046816	-0.15316	-0.008669	-0.046816	0.031938	-0.008669	0	0	0	-0.14297	0.022172	0.049968	-0.11039	0.02335	0.16532	-0.14868	-0.090956	0.059256
666	6.2662	-0.080655	-0.0076938	0.1586	-0.051203	-0.23448	0.22261	-0.029841	-0.22196	0.24249	-0.046816	-0.15316	-0.008669	-0.046816	0.031938	-0.008669	0	0	0	-0.14279	0.022322	0.050098	-0.1102	0.023177	0.16544	-0.14875	-0.090805	0.059122
667	6.2756	-0.080585	-0.0080127	0.15867	-0.054115	-0.23551	0.22174	-0.03259	-0.22328	0.24167	-0.046816	-0.15316	-0.008669	-0.046816	0.031938	-0.008669	0	0	0	-0.1426	0.022468	0.050228	-0.11002	0.023009	0.16557	-0.14881	-0.090655	0.058991
668	6.285	-0.080514	-0.0083246	0.15873	-0.056996	-0.23653	0.22087	-0.035314	-0.22457	0.24084	-0.046816	-0.15316	-0.008669	-0.046816	0.031938	-0.008669	0	0	0	-0.14241	0.022611	0.050357	-0.10983	0.022847	0.16568	-0.14887	-0.090507	0.058865
669	6.2945	-0.080443	-0.0086291	0.15879	-0.059842	-0.23751	0.22	-0.038009	-0.22582	0.24002	-0.046816	-0.15316	-0.008669	-0.046816	0.031938	-0.008669	0	0	0	-0.14222	0.022751	0.050484	-0.10965	0.02269	0.1658	-0.14893	-0.090362	0.058741
670	6.3039	-0.080373	-0.008926	0.15886	-0.06265	-0.23846	0.21913	-0.040671	-0.22704	0.23919	-0.046816	-0.15316	-0.008669	-0.046816	0.031938	-0.008669	0	0	0	-0.14204	0.022886	0.050609	-0.10948	0.022538	0.16591	-0.14899	-0.09022	0.058622
671	6.3133	-0.080303	-0.0092148	0.15892	-0.065416	-0.23938	0.21826	-0.043297	-0.22823	0.23837	-0.046816	-0.15316	-0.008669	-0.046816	0.031938	-0.008669	0	0	0	-0.14185	0.023018	0.050732	-0.1093	0.022392	0.16602	-0.14904	-0.09008	0.058506
672	6.3227	-0.080234	-0.0094953	0.15899	-0.068135	-0.24027	0.2174	-0.045884	-0.22938	0.23756	-0.046816	-0.15316	-0.008669	-0.046816	0.031938	-0.008669	0	0	0	-0.14167	0.023146	0.050852	-0.10914	0.022253	0.16613	-0.1491	-0.089944	0.058393
673	6.3322	-0.080164	-0.0097672	0.15905	-0.070806	-0.24113	0.21654	-0.048428	-0.23049	0.23674	-0.046816	-0.15316	-0.008669	-0.046816	0.031938	-0.008669	0	0	0	-0.14148	0.023269	0.050969	-0.10897	0.022119	0.16623	-0.14914	-0.089811	0.058284
674	6.3416	-0.080096	-0.01003	0.15912	-0.073424	-0.24196	0.21568	-0.050927	-0.23157	0.23594	-0.046816	-0.15316	-0.008669	-0.046816	0.031938	-0.008669	0	0	0	-0.1413	0.023388	0.051083	-0.10881	0.021991	0.16633	-0.14919	-0.089682	0.058179
675	6.351	-0.080028	-0.010284	0.15919	-0.075984	-0.24275	0.21483	-0.053375	-0.23261	0.23514	-0.046816	-0.15316	-0.008669	-0.046816	0.031938	-0.008669	0	0	0	-0.14112	0.023503	0.051192	-0.10866	0.021871	0.16642	-0.14923	-0.089557	0.058077
676	6.3604	-0.07996	-0.010528	0.15926	-0.078485	-0.24351	0.21399	-0.055771	-0.2336	0.23434	-0.046816	-0.15316	-0.008669	-0.046816	0.031938	-0.008669	0	0	0	-0.14094	0.023613	0.051298	-0.10851	0.021756	0.16651	-0.14927	-0.089436	0.057978
677	6.3698	-0.079894	-0.010762	0.15933	-0.080921	-0.24423	0.21315	-0.058111	-0.23456	0.23356	-0.046816	-0.15316	-0.008669	-0.046816	0.031938	-0.008669	0	0	0	-0.14076	0.023718	0.051399	-0.10837	0.021649	0.16659	-0.14931	-0.089319	0.057882
678	6.3793	-0.079828	-0.010986	0.1594	-0.08329	-0.24491	0.21232	-0.060391	-0.23548	0.23278	-0.046816	-0.15316	-0.008669	-0.046816	0.031938	-0.008669	0	0	0	-0.14059	0.023818	0.051495	-0.10824	0.021548	0.16667	-0.14934	-0.089207	0.05779
679	6.3887	-0.079763	-0.011199	0.15948	-0.085587	-0.24556	0.2115	-0.062607	-0.23635	0.23201	-0.046816	-0.15316	-0.008669	-0.046816	0.031938	-0.008669	0	0	0	-0.14041	0.023913	0.051587	-0.10811	0.021455	0.16674	-0.14937	-0.0891	0.057701
680	6.3981	-0.0797	-0.011402	0.15956	-0.08781	-0.24617	0.21068	-0.064758	-0.23717	0.23125	-0.046816	-0.15316	-0.008669	-0.046816	0.031938	-0.008669	0	0	0	-0.14024	0.024003	0.051672	-0.10799	0.021369	0.16681	-0.14939	-0.088999	0.057616
681	6.4075	-0.079637	-0.011593	0.15963	-0.089953	-0.24674	0.20988	-0.066838	-0.23796	0.2305	-0.046816	-0.15316	-0.008669	-0.046816	0.031938	-0.008669	0	0	0	-0.14008	0.024088	0.051752	-0.10788	0.02129	0.16687	-0.14941	-0.088903	0.057533
682	6.417	-0.079575	-0.011773	0.15972	-0.092015	-0.24727	0.20909	-0.068845	-0.23869	0.22976	-0.046816	-0.15316	-0.008669	-0.046816	0.031938	-0.008669	0	0	0	-0.13991	0.024167	0.051825	-0.10778	0.021219	0.16693	-0.14943	-0.088812	0.057454
683	6.4264	-0.079515	-0.011941	0.1598	-0.09399	-0.24775	0.2083	-0.070775	-0.23938	0.22904	-0.046816	-0.15316	-0.008669	-0.046816	0.031938	-0.008669	0	0	0	-0.13975	0.02424	0.051892	-0.10769	0.021156	0.16698	-0.14944	-0.088727	0.057378
